<svg xmlns="http://www.w3.org/2000/svg" xmlns:xlink="http://www.w3.org/1999/xlink" width="128" zoomAndPan="magnify" viewBox="0 0 96 95.999999" height="128" preserveAspectRatio="xMidYMid meet" version="1.0"><defs><clipPath id="2266356668"><path d="M 11.25 0 L 84.75 0 C 87.734375 0 90.59375 1.183594 92.703125 3.296875 C 94.816406 5.40625 96 8.265625 96 11.25 L 96 84.75 C 96 90.964844 90.964844 96 84.75 96 L 11.25 96 C 5.035156 96 0 90.964844 0 84.75 L 0 11.25 C 0 5.035156 5.035156 0 11.25 0 Z M 11.25 0 " clip-rule="nonzero"/></clipPath><clipPath id="5543096572"><path d="M 20.652344 20 L 75.402344 20 L 75.402344 75 L 20.652344 75 Z M 20.652344 20 " clip-rule="nonzero"/></clipPath></defs><g clip-path="url(#2266356668)"><rect x="-9.6" width="115.2" fill="#141414" y="-9.6" height="115.199999" fill-opacity="1"/></g><g clip-path="url(#5543096572)"><path fill="#ffffff" d="M 47.996094 20.164062 C 47.101562 20.164062 46.210938 20.210938 45.316406 20.300781 C 44.425781 20.386719 43.542969 20.519531 42.664062 20.695312 C 41.785156 20.871094 40.917969 21.089844 40.0625 21.347656 C 39.207031 21.609375 38.363281 21.910156 37.539062 22.253906 C 36.710938 22.597656 35.902344 22.980469 35.113281 23.402344 C 34.324219 23.824219 33.558594 24.285156 32.8125 24.78125 C 32.066406 25.28125 31.351562 25.8125 30.65625 26.382812 C 29.964844 26.949219 29.304688 27.550781 28.671875 28.183594 C 28.035156 28.816406 27.4375 29.480469 26.867188 30.171875 C 26.300781 30.863281 25.765625 31.582031 25.269531 32.324219 C 24.773438 33.070312 24.3125 33.835938 23.890625 34.625 C 23.46875 35.414062 23.085938 36.222656 22.742188 37.050781 C 22.398438 37.878906 22.097656 38.71875 21.835938 39.574219 C 21.574219 40.433594 21.359375 41.300781 21.183594 42.175781 C 21.007812 43.054688 20.875 43.941406 20.785156 44.832031 C 20.699219 45.722656 20.652344 46.613281 20.652344 47.511719 C 22.15625 83.78125 73.839844 83.78125 75.34375 47.511719 C 75.34375 46.613281 75.296875 45.722656 75.210938 44.832031 C 75.121094 43.941406 74.988281 43.054688 74.8125 42.175781 C 74.636719 41.300781 74.417969 40.433594 74.160156 39.574219 C 73.898438 38.71875 73.597656 37.878906 73.253906 37.050781 C 72.910156 36.222656 72.527344 35.414062 72.105469 34.625 C 71.683594 33.835938 71.222656 33.070312 70.726562 32.324219 C 70.226562 31.582031 69.695312 30.863281 69.128906 30.171875 C 68.558594 29.480469 67.957031 28.816406 67.324219 28.183594 C 66.691406 27.550781 66.03125 26.949219 65.335938 26.382812 C 64.644531 25.8125 63.925781 25.28125 63.183594 24.78125 C 62.4375 24.285156 61.671875 23.824219 60.882812 23.402344 C 60.09375 22.980469 59.285156 22.597656 58.457031 22.253906 C 57.628906 21.910156 56.789062 21.609375 55.933594 21.347656 C 55.074219 21.089844 54.207031 20.871094 53.332031 20.695312 C 52.453125 20.519531 51.566406 20.386719 50.675781 20.300781 C 49.785156 20.210938 48.894531 20.164062 47.996094 20.164062 Z M 39.910156 39.074219 L 32.839844 46.769531 L 39.910156 54.484375 L 37.019531 57.121094 L 27.527344 46.769531 L 37.019531 36.414062 Z M 41.941406 57.726562 L 50.398438 35.867188 L 54.054688 37.292969 L 45.59375 59.152344 Z M 56.085938 54.484375 L 63.15625 46.769531 L 56.085938 39.074219 L 58.976562 36.414062 L 68.46875 46.769531 L 58.976562 57.121094 Z M 56.085938 54.484375 " fill-opacity="1" fill-rule="nonzero"/></g></svg>